<?xml version="1.0" encoding="UTF-8" standalone="no"?>
<!-- Created with Inkscape (http://www.inkscape.org/) -->

<svg
   xmlns:osb="http://www.openswatchbook.org/uri/2009/osb"
   xmlns:dc="http://purl.org/dc/elements/1.1/"
   xmlns:cc="http://creativecommons.org/ns#"
   xmlns:rdf="http://www.w3.org/1999/02/22-rdf-syntax-ns#"
   xmlns:svg="http://www.w3.org/2000/svg"
   xmlns="http://www.w3.org/2000/svg"
   xmlns:sodipodi="http://sodipodi.sourceforge.net/DTD/sodipodi-0.dtd"
   xmlns:inkscape="http://www.inkscape.org/namespaces/inkscape"
   width="640"
   height="640"
   id="svg3052"
   version="1.1"
   inkscape:version="0.48.4 r9939"
   sodipodi:docname="dino_circle.svg">
  <defs
     id="defs3054">
    <linearGradient
       id="linearGradient6424">
      <stop
         style="stop-color:#007433;stop-opacity:1;"
         offset="0"
         id="stop6426" />
      <stop
         id="stop6434"
         offset="1"
         style="stop-color:#0ec633;stop-opacity:0.74901962;" />
    </linearGradient>
    <linearGradient
       id="linearGradient5597"
       osb:paint="solid">
      <stop
         style="stop-color:#007433;stop-opacity:1;"
         offset="0"
         id="stop5599" />
    </linearGradient>
  </defs>
  <sodipodi:namedview
     id="base"
     pagecolor="#ffffff"
     bordercolor="#666666"
     borderopacity="1.0"
     inkscape:pageopacity="0.0"
     inkscape:pageshadow="2"
     inkscape:zoom="0.98994949"
     inkscape:cx="433.63753"
     inkscape:cy="303.54928"
     inkscape:document-units="px"
     inkscape:current-layer="layer2"
     showgrid="false"
     inkscape:window-width="1535"
     inkscape:window-height="876"
     inkscape:window-x="65"
     inkscape:window-y="24"
     inkscape:window-maximized="1"
     width="640px" />
  <metadata
     id="metadata3057">
    <rdf:RDF>
      <cc:Work
         rdf:about="">
        <dc:format>image/svg+xml</dc:format>
        <dc:type
           rdf:resource="http://purl.org/dc/dcmitype/StillImage" />
        <dc:title></dc:title>
      </cc:Work>
    </rdf:RDF>
  </metadata>
  <g
     inkscape:label="Layer 1"
     inkscape:groupmode="layer"
     id="layer1"
     transform="translate(0,-412.3622)"
     style="display:inline">
    <flowRoot
       xml:space="preserve"
       id="flowRoot5587"
       style="font-size:40px;font-style:normal;font-variant:normal;font-weight:normal;font-stretch:normal;line-height:125%;letter-spacing:0px;word-spacing:0px;fill:#000000;fill-opacity:1;stroke:none;font-family:DejaVu Sans Mono;-inkscape-font-specification:DejaVu Sans Mono"
       transform="translate(0,652.3622)"><flowRegion
         id="flowRegion5589"><rect
           id="rect5591"
           width="57.142857"
           height="77.14286"
           x="137.14285"
           y="-80" /></flowRegion><flowPara
         id="flowPara5593"></flowPara></flowRoot>  </g>
  <g
     inkscape:groupmode="layer"
     id="layer2"
     inkscape:label="Interr"
     style="display:inline">
    <text
       xml:space="preserve"
       style="font-size:186.69068909px;font-style:normal;font-variant:normal;font-weight:normal;font-stretch:normal;line-height:125%;letter-spacing:0px;word-spacing:0px;fill:#8fdc6c;fill-opacity:1;stroke:none;font-family:DejaVu Sans Mono;-inkscape-font-specification:DejaVu Sans Mono"
       x="118.62636"
       y="568.17859"
       id="text6514"
       sodipodi:linespacing="125%"><tspan
         sodipodi:role="line"
         id="tspan6516"
         x="118.62636"
         y="568.17859"
         style="font-size:672.08648682px;fill:#8fdc6c;fill-opacity:1">?</tspan></text>
  </g>
  <g
     inkscape:groupmode="layer"
     id="layer3"
     inkscape:label="Dinos">
    <path
       style="fill:#8fdc6c;fill-opacity:1;display:inline"
       d="m 306.0163,527.38904 c -5.83304,-0.78008 -6.11943,-1.03852 -5.10459,-4.60562 0.71199,-2.50252 1.94181,-3.24941 9.19327,-5.58287 10.71059,-3.4468 13.15783,-5.35065 15.99958,-12.44715 4.12712,-10.30662 5.76539,-34.13996 3.24247,-47.17175 -1.25795,-6.4979 -2.77149,-9.46255 -13.13865,-25.73586 l -11.71691,-18.392 -8.35817,-0.15176 c -19.33426,-0.35112 -53.16282,-8.90254 -69.93562,-17.67883 -3.61869,-1.89347 -8.89552,-5.35028 -11.72631,-7.68181 l -5.14691,-4.23916 0.32012,15.63901 c 0.33766,16.49581 -0.92968,27.19168 -3.49088,29.46218 -3.53277,3.13177 -20.47003,24.77887 -20.39167,26.06208 0.0476,0.76712 -0.3998,1.42447 -0.99255,1.46067 -0.61701,0.038 -0.89554,-1.19317 -0.6515,-2.87941 l 0.42624,-2.94522 -1.49745,3.01064 c -1.98758,3.99608 -2.75954,3.856 -2.18844,-0.39711 0.34743,-2.58732 0.20867,-3.05478 -0.54159,-1.8246 -0.69215,1.13486 -1.0393,1.23606 -1.10625,0.32243 -0.0537,-0.73227 2.9569,-5.05763 6.69013,-9.61184 3.73322,-4.55423 7.82731,-10.73038 9.09795,-13.72481 2.27386,-5.35855 2.28314,-5.7664 0.5895,-25.86316 -1.56015,-18.51266 -2.07109,-21.42721 -5.47358,-31.22191 -2.95624,-8.51007 -3.88456,-12.96052 -4.37348,-20.96687 -0.42675,-6.98854 -1.42147,-12.43088 -3.18401,-17.42091 -10.05911,-28.47905 -32.91605,-68.54396 -47.02981,-82.43635 -5.13949,-5.05887 -5.22576,-5.09448 -8.13544,-3.3573 -8.11898,4.84738 -25.6255,7.5033 -39.936846,6.05884 -3.81849,-0.38541 -11.47059,-0.53395 -17.00462,-0.33008 -11.17433,0.41163 -14.9031,-0.68269 -15.1326,-4.44113 -0.28959,-4.74347 23.00405,-24.62832 39.84042,-34.01002 10.483766,-5.84188 19.670036,-7.44917 32.047266,-5.60716 22.04537,3.28085 32.99406,13.78168 49.01324,47.00847 5.5478,11.50718 12.70203,23.18893 17.43495,28.46862 4.79566,5.34968 16.72672,11.93657 27.33077,15.08876 14.63386,4.35007 22.70048,5.33315 77.93016,9.49721 34.23592,2.58124 56.83479,6.70402 76.48534,13.95345 5.52538,2.03842 11.7422,4.10119 13.81511,4.58395 5.34513,1.2448 54.39136,-2.93298 71.2824,-6.07189 64.59479,-12.00377 117.47029,-31.93329 132.75327,-50.0366 3.39088,-4.01662 4.57683,-4.36964 4.75719,-1.41608 0.17677,2.89143 -7.67389,11.17489 -15.86437,16.73927 -19.99982,13.58745 -42.45778,25.47131 -114.75019,60.72139 -20.97748,10.2287 -41.78915,20.54275 -46.24819,22.92011 -4.45902,2.37737 -9.14568,4.57699 -10.41476,4.88808 -1.26909,0.31107 -4.6037,3.05312 -7.41024,6.09339 -8.92091,9.6639 -36.4634,24.19643 -51.93414,27.40258 -4.1817,0.8666 -4.88049,1.32984 -4.09503,2.71468 1.9197,3.38454 1.4403,12.24071 -1.04509,19.30664 -2.08713,5.93375 -2.44816,9.09438 -2.27775,19.94083 0.12617,8.02977 0.70757,14.09598 1.54211,16.08972 1.17469,2.80636 0.78267,5.09705 -3.18389,18.60775 -3.73565,12.72394 -4.52477,17.04857 -4.53074,24.8301 l -0.007,9.42264 -11.41583,4.2739 c -12.06175,4.51582 -12.93684,4.67408 -20.3562,3.68187 z"
       id="path3884"
       inkscape:connector-curvature="0" />
    <path
       style="fill:#007433;fill-opacity:1;display:inline"
       d="m 312.38433,520.14746 c -5.83305,-0.78008 -6.11945,-1.03842 -5.1046,-4.60553 0.712,-2.50251 1.9418,-3.24931 9.19326,-5.58296 10.71063,-3.44671 13.15782,-5.35056 15.99957,-12.44711 4.12713,-10.30659 5.76539,-34.13992 3.24249,-47.17171 -1.25797,-6.49789 -2.77148,-9.46256 -13.13866,-25.73588 l -11.71692,-18.39199 -8.35815,-0.15176 c -19.33427,-0.35113 -53.16282,-8.90254 -69.93563,-17.67883 -3.61867,-1.89346 -8.89553,-5.35026 -11.72631,-7.6818 l -5.14691,-4.23916 0.32012,15.63899 c 0.33763,16.49583 -0.92967,27.1917 -3.49086,29.46219 -3.53278,3.13178 -20.47005,24.77885 -20.39169,26.0621 0.0476,0.7671 -0.39979,1.42446 -0.99256,1.46066 -0.61699,0.038 -0.89553,-1.19318 -0.65148,-2.87943 l 0.42624,-2.94521 -1.49746,3.01065 c -1.98757,3.99607 -2.75956,3.856 -2.18843,-0.39711 0.34742,-2.58732 0.20867,-3.05478 -0.5416,-1.8246 -0.69213,1.13486 -1.0393,1.23605 -1.10625,0.32244 -0.0537,-0.7323 2.95691,-5.05763 6.69014,-9.61185 3.73323,-4.55422 7.82733,-10.73038 9.09795,-13.72481 2.27387,-5.35853 2.28315,-5.76639 0.5895,-25.86314 -1.56015,-18.51268 -2.0711,-21.42722 -5.47359,-31.22194 -2.95623,-8.51006 -3.88456,-12.9605 -4.37349,-20.96686 -0.42675,-6.98853 -1.42146,-12.43088 -3.18399,-17.42091 -10.0591,-28.47906 -32.91608,-68.54395 -47.02982,-82.43634 -5.1395,-5.05888 -5.22578,-5.09449 -8.13545,-3.3573 -8.11897,4.84739 -25.62548,7.50329 -39.936836,6.05883 -3.81851,-0.38542 -11.47059,-0.53395 -17.00462,-0.33008 -11.17432,0.41164 -14.90309,-0.68268 -15.13261,-4.44112 -0.28967,-4.74348 23.00404,-24.62832 39.840406,-34.01004 10.48381,-5.84187 19.67008,-7.44915 32.04727,-5.60715 22.0454,3.28086 32.9941,13.78168 49.01326,47.00847 5.54781,11.50719 12.70203,23.18893 17.43497,28.46863 4.79566,5.34968 16.72671,11.93656 27.33075,15.08875 14.63387,4.35008 22.70048,5.33315 77.93016,9.4972 34.23593,2.58125 56.8348,6.70403 76.48536,13.95346 5.52539,2.03842 11.74217,4.10121 13.81509,4.58395 5.34514,1.2448 54.39138,-2.93298 71.28242,-6.07188 64.59477,-12.00379 117.47025,-31.93332 132.75325,-50.03662 3.39086,-4.01661 4.57681,-4.36966 4.75718,-1.41608 0.17677,2.89143 -7.67389,11.17489 -15.86435,16.73927 -19.99983,13.58743 -42.45781,25.47133 -114.75021,60.7214 -20.97746,10.22869 -41.78915,20.54274 -46.24818,22.92011 -4.45903,2.37736 -9.14567,4.57698 -10.41477,4.88806 -1.26909,0.31107 -4.60368,3.05313 -7.41024,6.09341 -8.92089,9.6639 -36.46339,24.19642 -51.93413,27.40258 -4.1817,0.86661 -4.88049,1.32985 -4.09502,2.71468 1.91968,3.38453 -0.50497,12.88434 -1.04509,19.30662 -0.56069,6.66663 -2.44817,9.09439 -2.27776,19.94082 0.12617,8.0298 0.70758,14.09599 1.54212,16.08974 1.17467,2.80635 0.78267,5.09706 -3.18391,18.60777 -3.73564,12.72392 -4.52474,17.04854 -4.53069,24.8301 l -0.007,9.42264 -11.41584,4.2739 c -12.06175,4.51573 -12.93686,4.674 -20.35617,3.68178 z"
       id="path3050-6"
       inkscape:connector-curvature="0"
       sodipodi:nodetypes="sscssscssscssccscssscscssssssssssssssssssscsssssssasssscss" />
  </g>
  <g
     inkscape:groupmode="layer"
     id="layer4"
     inkscape:label="Circle">
    <path
       sodipodi:type="arc"
       style="fill:none;stroke:#007433;stroke-width:43.52941895;stroke-miterlimit:31.39999962;stroke-opacity:1;stroke-dasharray:none;stroke-dashoffset:0;display:inline"
       id="path5595"
       sodipodi:cx="152.85715"
       sodipodi:cy="-107.14286"
       sodipodi:rx="310"
       sodipodi:ry="310"
       d="m 462.85715,-107.14286 a 310,310 0 1 1 -620,0 310,310 0 1 1 620,0 z"
       transform="matrix(0.87828313,-0.29069505,0.29069505,0.87828313,208.02103,459.32838)" />
  </g>
</svg>
