<?xml version="1.0" encoding="UTF-8" standalone="no"?>
<!-- Created with Inkscape (http://www.inkscape.org/) -->

<svg
   xmlns:dc="http://purl.org/dc/elements/1.1/"
   xmlns:cc="http://creativecommons.org/ns#"
   xmlns:rdf="http://www.w3.org/1999/02/22-rdf-syntax-ns#"
   xmlns:svg="http://www.w3.org/2000/svg"
   xmlns="http://www.w3.org/2000/svg"
   xmlns:sodipodi="http://sodipodi.sourceforge.net/DTD/sodipodi-0.dtd"
   xmlns:inkscape="http://www.inkscape.org/namespaces/inkscape"
   width="640"
   height="400"
   id="svg3052"
   version="1.1"
   inkscape:version="0.48.4 r9939"
   sodipodi:docname="drawing.svg">
  <defs
     id="defs3054">
    <filter
       inkscape:collect="always"
       id="filter5506">
      <feGaussianBlur
         inkscape:collect="always"
         stdDeviation="1.9377338"
         id="feGaussianBlur5508" />
    </filter>
  </defs>
  <sodipodi:namedview
     id="base"
     pagecolor="#ffffff"
     bordercolor="#666666"
     borderopacity="1.0"
     inkscape:pageopacity="0.0"
     inkscape:pageshadow="2"
     inkscape:zoom="0.98994949"
     inkscape:cx="424.67066"
     inkscape:cy="144.11175"
     inkscape:document-units="px"
     inkscape:current-layer="layer1"
     showgrid="false"
     inkscape:window-width="1535"
     inkscape:window-height="876"
     inkscape:window-x="65"
     inkscape:window-y="24"
     inkscape:window-maximized="1"
     width="640px" />
  <metadata
     id="metadata3057">
    <rdf:RDF>
      <cc:Work
         rdf:about="">
        <dc:format>image/svg+xml</dc:format>
        <dc:type
           rdf:resource="http://purl.org/dc/dcmitype/StillImage" />
        <dc:title></dc:title>
      </cc:Work>
    </rdf:RDF>
  </metadata>
  <g
     inkscape:label="Layer 1"
     inkscape:groupmode="layer"
     id="layer1"
     transform="translate(0,-652.3622)">
    <path
       style="fill:#8fdc6c;fill-opacity:1;filter:url(#filter5506)"
       d="m 274.48481,1041.2866 c -6.33463,-1.2668 -6.63009,-1.5701 -5.26631,-5.4059 0.95679,-2.6911 2.35676,-3.4223 10.46521,-5.4661 11.97641,-3.0188 14.79174,-4.9314 18.4062,-12.5044 5.24937,-10.9986 8.72827,-36.99084 6.88551,-51.44468 -0.91883,-7.20696 -2.3673,-10.56152 -12.5739,-29.1206 l -11.53546,-20.97536 -9.14514,-0.75691 c -21.15473,-1.75096 -57.60759,-13.50914 -75.36099,-24.30835 -3.83025,-2.32991 -9.36642,-6.48954 -12.30261,-9.24364 l -5.33856,-5.00747 -0.75452,17.15422 c -0.79585,18.09405 -2.93999,29.72118 -5.90609,32.02737 -4.09126,3.18102 -24.17479,25.69719 -24.17964,27.10843 -0.002,0.84369 -0.53862,1.53216 -1.19049,1.52993 -0.6786,-0.002 -0.8967,-1.37034 -0.51021,-3.20027 l 0.67505,-3.1962 -1.85313,3.19216 c -2.45968,4.23701 -3.29541,4.02901 -2.36924,-0.58967 0.56342,-2.80971 0.44446,-3.33158 -0.46434,-2.03702 -0.8384,1.19426 -1.22584,1.28058 -1.23461,0.27503 -0.007,-0.80596 3.59652,-5.33136 8.00789,-10.05642 4.41137,-4.72506 9.33266,-11.20135 10.93618,-14.39178 2.86956,-5.70927 2.90855,-6.15539 2.47347,-28.28989 -0.40079,-20.38977 -0.75454,-23.6186 -3.78958,-34.58856 -2.637,-9.5312 -3.33941,-14.47199 -3.30919,-23.27703 0.0264,-7.68569 -0.67867,-13.71775 -2.25678,-19.30858 -9.00659,-31.90798 -31.21369,-77.41197 -45.69272,-93.62766 -5.2725,-5.90489 -5.36449,-5.95 -8.674645,-4.25264 -9.236407,4.73627 -28.601449,6.40851 -44.176611,3.81482 -4.1557,-0.69204 -12.527613,-1.39551 -18.604217,-1.56327 -12.269908,-0.33875 -16.277224,-1.80102 -16.263044,-5.9344 0.01798,-5.21665 26.940036,-25.35319 46.046274,-34.44049 11.897194,-5.65856 22.073795,-6.77007 35.502123,-3.87758 23.91757,5.15187 35.16912,17.42865 50.36909,54.95869 5.26409,12.99749 12.27559,26.29973 17.08712,32.41778 4.87531,6.19916 17.47959,14.25785 28.87293,18.46026 15.72311,5.7994 24.49014,7.44636 84.69671,15.91084 37.321,5.24699 61.78539,11.36028 82.79909,20.69028 5.90868,2.62344 12.57305,5.32242 14.80969,5.99774 5.7673,1.74134 59.78977,0.63084 78.51472,-1.61397 71.60805,-8.5846 130.93842,-26.67958 148.95936,-45.43065 3.99834,-4.16034 5.32244,-4.46325 5.31129,-1.21505 -0.0107,3.17989 -9.19602,11.69913 -18.56141,17.21576 -22.86883,13.47089 -48.31001,24.9019 -129.99312,58.40747 -23.70243,9.72248 -47.22926,19.55018 -52.28188,21.83933 -5.0526,2.28914 -10.34199,4.36751 -11.75418,4.6186 -1.4122,0.25108 -5.25884,3.01917 -8.5481,6.15128 -10.45524,9.9558 -41.65341,23.92894 -58.82726,26.34779 -4.64204,0.6538 -5.44027,1.11187 -4.6777,2.68439 1.86373,3.84322 0.71273,13.51075 -2.50921,21.07542 -2.70566,6.35258 -3.3245,9.78934 -3.90433,21.68301 -0.42924,8.80507 -0.22103,15.49132 0.55226,17.73433 1.08848,3.15721 0.49724,5.63882 -4.80275,20.15868 -4.99137,13.67433 -6.16141,18.35593 -6.71784,26.87973 l -0.67378,10.3214 -12.80739,3.8751 c -13.53207,4.0944 -14.50186,4.2059 -22.55919,2.5947 z"
       id="path3884"
       inkscape:connector-curvature="0"
       transform="matrix(-1,0,0,1,635.27202,0)" />
    <path
       style="fill:#007433;fill-opacity:1"
       d="m 352.99763,1036.5184 c 6.33463,-1.2668 6.6301,-1.5701 5.26632,-5.4058 -0.95679,-2.6911 -2.35677,-3.4223 -10.46521,-5.4662 -11.97642,-3.0188 -14.79174,-4.9314 -18.4062,-12.5044 -5.24938,-10.9986 -8.72827,-36.99087 -6.88551,-51.44471 0.91883,-7.20695 2.36729,-10.56152 12.57391,-29.12061 l 11.53545,-20.97535 9.14513,-0.75691 c 21.15474,-1.75096 57.60759,-13.50914 75.361,-24.30836 3.83023,-2.3299 9.36642,-6.48952 12.30261,-9.24363 l 5.33857,-5.00747 0.7545,17.15422 c 0.79588,18.09405 2.94,29.72118 5.90609,32.02737 4.09126,3.18102 24.1748,25.69718 24.17965,27.10843 0.002,0.84369 0.53861,1.53216 1.19051,1.52993 0.67857,-0.002 0.89668,-1.37034 0.51018,-3.20028 l -0.67504,-3.19619 1.85313,3.19216 c 2.45967,4.237 3.29543,4.02901 2.36923,-0.58968 -0.56342,-2.8097 -0.44446,-3.33158 0.46434,-2.03701 0.8384,1.19426 1.22585,1.28057 1.23463,0.27503 0.007,-0.80597 -3.59654,-5.33137 -8.0079,-10.05642 -4.41137,-4.72506 -9.33267,-11.20136 -10.93618,-14.39178 -2.86957,-5.70927 -2.90855,-6.15539 -2.47348,-28.28989 0.40079,-20.38977 0.75454,-23.6186 3.78959,-34.58856 2.63699,-9.5312 3.3394,-14.472 3.30921,-23.27703 -0.0264,-7.68569 0.67865,-13.71775 2.25676,-19.30858 9.00658,-31.90799 31.21372,-77.41197 45.69273,-93.62766 5.2725,-5.90489 5.36451,-5.95 8.67464,-4.25264 9.23641,4.73627 28.60145,6.4085 44.17661,3.81482 4.15571,-0.69205 12.52761,-1.39551 18.60422,-1.56327 12.26989,-0.33875 16.27721,-1.80102 16.26303,-5.9344 -0.0179,-5.21665 -26.94001,-25.35319 -46.04625,-34.44049 -11.89721,-5.65856 -22.07381,-6.77006 -35.50213,-3.87759 -23.91756,5.15188 -35.16914,17.42866 -50.3691,54.95869 -5.2641,12.9975 -12.27559,26.29974 -17.08713,32.41779 -4.87531,6.19916 -17.47958,14.25785 -28.87292,18.46026 -15.72312,5.79941 -24.49014,7.44636 -84.69671,15.91083 -37.32101,5.247 -61.78538,11.36029 -82.7991,20.6903 -5.90868,2.62343 -12.57303,5.32241 -14.80968,5.99772 -5.76731,1.74135 -59.78979,0.63085 -78.51474,-1.61396 -71.608046,-8.5846 -130.938386,-26.67958 -148.959336,-45.43065 -3.99834,-4.16034 -5.32243,-4.46326 -5.31129,-1.21505 0.0107,3.17988 9.19601,11.69913 18.5614,17.21576 22.86883,13.47088 48.31002,24.9019 129.993136,58.40747 23.7024,9.72248 47.22925,19.55018 52.28186,21.83933 5.05261,2.28915 10.34199,4.36751 11.75419,4.6186 1.4122,0.25108 5.25883,3.01917 8.5481,6.15127 10.45524,9.95581 41.6534,23.92895 58.82725,26.3478 4.64205,0.65381 5.44027,1.11187 4.6777,2.68439 -1.86372,3.84321 -0.71272,13.51074 2.50921,21.07541 2.70567,6.35258 3.32451,9.78935 3.90434,21.68301 0.42924,8.80508 0.22102,15.49133 -0.55227,17.73433 -1.08847,3.15722 -0.49723,5.63883 4.80277,20.15869 4.99135,13.67436 6.16138,18.35596 6.71782,26.87976 l 0.6738,10.3215 12.80738,3.875 c 13.53206,4.0943 14.50187,4.2059 22.55918,2.5947 z"
       id="path3050-6"
       inkscape:connector-curvature="0" />
  </g>
</svg>
